<svg width="163" height="103" viewBox="0 0 163 103" fill="none" xmlns="http://www.w3.org/2000/svg">
<path d="M77.72 82.28C77.72 82.7333 77.8267 83.16 78.04 83.56C78.28 83.96 78.6133 84.2933 79.04 84.56C79.4667 84.8 79.9733 84.92 80.56 84.92C81.4133 84.92 82.24 84.72 83.04 84.32C83.84 83.92 84.5867 83.3733 85.28 82.68V79.2H80.92C79.9067 79.2 79.12 79.52 78.56 80.16C78 80.8 77.72 81.5067 77.72 82.28ZM76.08 73.48L74.88 69.8C75.3867 69.4533 76.0667 69.16 76.92 68.92C77.7733 68.6533 78.64 68.4533 79.52 68.32C80.4 68.16 81.1067 68.08 81.64 68.08C83.16 68.08 84.5333 68.3867 85.76 69C86.9867 69.5867 87.96 70.4133 88.68 71.48C89.4267 72.5467 89.8 73.7333 89.8 75.04V88H86.76L86.08 86.04C85.3867 86.7067 84.56 87.28 83.6 87.76C82.64 88.24 81.6533 88.48 80.64 88.48C78.32 88.48 76.6 87.9067 75.48 86.76C74.36 85.6133 73.8 84.12 73.8 82.28C73.8 80.3333 74.4667 78.84 75.8 77.8C77.1333 76.76 78.8667 76.2267 81 76.2H85.24V76.08C85.2133 74.9333 84.9333 74 84.4 73.28C83.8667 72.5333 82.9733 72.16 81.72 72.16C80.7067 72.16 79.6933 72.3067 78.68 72.6C77.6933 72.8667 76.8267 73.16 76.08 73.48ZM98.7219 88H94.2419V68.6H96.6419L98.1219 71.8C98.6552 71.3467 99.2952 70.88 100.042 70.4C100.789 69.8933 101.562 69.4667 102.362 69.12C103.189 68.7733 103.949 68.6 104.642 68.6L105.602 72.2C104.962 72.2 104.229 72.36 103.402 72.68C102.602 73 101.789 73.4133 100.962 73.92C100.162 74.4267 99.4152 75 98.7219 75.64V88ZM111.064 88H108.704V60.2L113.144 59.76V85.08L111.064 88ZM111.544 74.68L110.264 71.6C110.851 70.8267 111.531 70.1867 112.304 69.68C113.078 69.1467 113.864 68.7467 114.664 68.48C115.491 68.2133 116.264 68.08 116.984 68.08C118.984 68.08 120.704 68.5067 122.144 69.36C123.611 70.1867 124.731 71.3733 125.504 72.92C126.304 74.44 126.704 76.24 126.704 78.32C126.704 80.3467 126.304 82.1333 125.504 83.68C124.704 85.2 123.571 86.3867 122.104 87.24C120.664 88.0933 118.918 88.52 116.864 88.52C116.224 88.52 115.464 88.3733 114.584 88.08C113.731 87.7867 112.904 87.3733 112.104 86.84C111.331 86.3067 110.691 85.68 110.184 84.96L111.504 81.84C112.384 82.88 113.238 83.6133 114.064 84.04C114.918 84.44 115.851 84.64 116.864 84.64C117.984 84.64 118.931 84.3733 119.704 83.84C120.478 83.28 121.064 82.52 121.464 81.56C121.864 80.6 122.064 79.5333 122.064 78.36C122.064 77.08 121.864 75.96 121.464 75C121.091 74.04 120.518 73.2933 119.744 72.76C118.971 72.2 118.024 71.92 116.904 71.92C115.838 71.92 114.891 72.1467 114.064 72.6C113.264 73.0533 112.424 73.7467 111.544 74.68ZM147.061 79.48H133.621C133.755 80.52 134.035 81.4267 134.461 82.2C134.915 82.9733 135.568 83.5867 136.421 84.04C137.301 84.4667 138.435 84.68 139.821 84.68C140.941 84.68 141.928 84.52 142.781 84.2C143.661 83.88 144.581 83.4667 145.541 82.96L146.901 86.24C146.288 86.64 145.621 87.0267 144.901 87.4C144.181 87.7467 143.395 88.0133 142.541 88.2C141.688 88.3867 140.755 88.48 139.741 88.48C137.368 88.48 135.368 88.0667 133.741 87.24C132.115 86.3867 130.901 85.2 130.101 83.68C129.301 82.1333 128.901 80.3467 128.901 78.32C128.901 76.2667 129.275 74.48 130.021 72.96C130.795 71.4133 131.888 70.2133 133.301 69.36C134.741 68.5067 136.448 68.08 138.421 68.08C140.421 68.08 142.061 68.56 143.341 69.52C144.621 70.48 145.555 71.7467 146.141 73.32C146.755 74.8933 147.061 76.6267 147.061 78.52V79.48ZM133.701 76.44H142.741C142.581 75.48 142.301 74.6667 141.901 74C141.528 73.3333 141.035 72.8267 140.421 72.48C139.835 72.1067 139.115 71.92 138.261 71.92C137.435 71.92 136.688 72.1067 136.021 72.48C135.381 72.8267 134.861 73.3333 134.461 74C134.088 74.6667 133.835 75.48 133.701 76.44ZM154.933 88H150.453V68.6H152.853L154.333 71.8C154.866 71.3467 155.506 70.88 156.253 70.4C156.999 69.8933 157.773 69.4667 158.573 69.12C159.399 68.7733 160.159 68.6 160.853 68.6L161.813 72.2C161.173 72.2 160.439 72.36 159.613 72.68C158.813 73 157.999 73.4133 157.173 73.92C156.373 74.4267 155.626 75 154.933 75.64V88Z" fill="#99BAED"/>
<g clip-path="url(#clip0_19922_3)">
<path d="M50.5803 7.77584C44.6236 8.29699 40.0962 13.5571 40.6169 19.5145L43.2968 50.1482L33.162 54.8735C29.7678 48.9757 22.3668 46.5552 16.0846 49.485C9.45122 52.5794 6.58174 60.4628 9.67428 67.0971C12.768 73.7299 20.6523 76.6013 27.2873 73.5076C31.8398 71.3846 34.6184 67.0039 34.9143 62.3216L47.3265 56.5333L48.5196 70.1754C44.6133 72.7733 42.209 77.3698 42.6457 82.3736C43.2841 89.6662 49.7121 95.0582 57.003 94.4212C64.2956 93.7827 69.6885 87.3552 69.0511 80.0643C68.447 73.1594 62.6501 67.9605 55.8458 67.969L54.8707 56.8294L82.7388 43.8338C88.1593 41.3065 90.4502 34.7552 87.9231 29.3359L53.8559 45.2238L50.5803 7.77584ZM27.6756 64.9207C25.7785 68.2067 21.5764 69.3326 18.2905 67.4355C15.0045 65.5383 13.8787 61.3362 15.7758 58.0503C17.6733 54.7636 21.8749 53.6385 25.1609 55.5356C28.4468 57.4327 29.5732 61.634 27.6756 64.9207ZM61.7886 84.6158C59.8914 87.9018 55.6894 89.0277 52.4034 87.1306C49.1175 85.2334 47.9916 81.0314 49.8887 77.7455C51.7863 74.4588 55.9879 73.3336 59.2738 75.2307C62.5597 77.1278 63.6861 81.3291 61.7886 84.6158Z" fill="#99BAED"/>
</g>
<defs>
<clipPath id="clip0_19922_3">
<rect width="74.2244" height="74.2244" fill="white" transform="translate(0 64.2803) rotate(-60)"/>
</clipPath>
</defs>
</svg>
